<?xml version="1.0" encoding="UTF-8"?>
<svg id="a" data-name="Layer 1" xmlns="http://www.w3.org/2000/svg" viewBox="0 0 432.2 512">
  <defs>
    <linearGradient id="c" x1="-1086.2" y1="249.6" x2="-1275.5" y2="365.5" gradientTransform="translate(958.1 67.2) scale(.6)" gradientUnits="userSpaceOnUse">
      <stop offset="0" stop-color="#f9c05e"/>
      <stop offset=".4" stop-color="#fddd62"/>
      <stop offset=".6" stop-color="#fdcb5b"/>
      <stop offset="1" stop-color="#e3862b"/>
    </linearGradient>
  </defs>
  <g id="b" data-name="Generative Object">
    <g>
      <path d="M107.5,212.1c-.7.3-1,1.3-1.2,1.9s-.6,1.5-.6,1.9c-.2.9-1,5.1-.3,5.6h73.1c-1.1-2-1.8-4.5-3.4-6.2s-2.1-.1-1.9-1.9h18.1c3.3,3,3.6,12.7,4.4,16.9-26.2-.6-52.5.8-78.7,0s-15.2,2.5-16.2-5.6c-.4-3.3,1.3-12,4.7-13.1s2.1.6,2.2.6Z" style="fill: #86261a;"/>
      <path d="M108.1,212.1c27-1.7,55.6,1.2,82.8,0,.6.2.2,1.2.3,1.2h-18.1c-22.3,0-44.7-.5-66.9.6.2-.6.6-1.6,1.2-1.9.2,0,.4,0,.6,0Z" style="fill: #fefbda;"/>
      <path d="M335.6,213.3c1.5,3.3,2.8,10.6,1.9,14.1s-3.5,2.8-5,4.1c-5.4-1.1-10.8-.4-16.2-.6-26.6-1-53.3-.6-80-.6-.3-1.1-2.8-5.4-1.6-6.2h96.2c3.7-2.9,2.3-8-.3-11.2v-.6c.3,0,2.9-2.9,5,1.2Z" style="fill: #86261a;"/>
      <path d="M328.7,213.3l2.5,6.6-1.6.9c-28.2-1.8-56.8.9-85,0-3.1,0-13.1,0-13.4-3.4-.6-5.9,8.7-.4,11.2-4.1,28.3.5,57.9.7,86.2,0Z" style="fill: #fbcd78;"/>
      <path d="M173.1,213.3c-.2,1.7.9.8,1.9,1.9l-1.6,3.7h-66.2l-1.6-3.1c0-.3.4-1.4.6-1.9,22.2-1.1,44.6-.6,66.9-.6Z" style="fill: #e9a143;"/>
      <path d="M105.6,215.8l1.6,3.1h66.2l1.6-3.7c1.6,1.7,2.3,4.3,3.4,6.2h-73.1c-.7-.5.1-4.7.3-5.6Z" style="fill: #de8e41;"/>
    </g>
    <g>
      <path d="M279.3,32.7h.6c-.1.7.7,2.6.6,4.4-11.6,1.5-23.3,1.1-35,1.2-22.2.2-44.4-.1-66.5,1.2-1.1-.7-.7-1.5-1.6-2.5,0-2.4-.6-2,1.6-2.5,13.1-3.1,55.8-.1,72.5-.6s3.1.6,2.8-1.2c8.3,0,16.7,0,25,0Z" style="fill: #f6bb58;"/>
      <path d="M276.2,31.5c1.2,0,2.6-.4,3.1,1.2-8.3,0-16.7,0-25,0-25.7,0-51.5-.3-77.2.6l-.6-1.9c32.9,1.1,66.9-1.5,99.7,0Z" style="fill: #fff9eb;"/>
      <path d="M278.7,50.2c-5.7-.7-11.7-1.1-17.5-1.2s-3.3,0-5,0-3.8,0-5.6,0c-22.7-.2-45.4,1.2-68.1,0,0-.3-3-3.8-1.6-5.6l89-.6c7.3,0,10.1,2.4,10.6-5.6s-.7-3.6-.6-4.4c1.3-8.8,9.1,11.5,3.4,16.2s-3.6.7-4.7,1.2Z" style="fill: #86261a;"/>
      <path d="M384.3,378.3c.4,2.2,1.2,3.8,1.2,6.2.2,5.2,1.3,6.1-3.1,10-6.2-.1-12.5.2-18.7,0-26.2-.7-52.5-.3-78.7-1.2-1.9.4-2.5-4.8-2.2-5h96.2c3.4-2.7,2.7-8.7.3-11.9,1.9-1.1,4.2.2,5,1.9Z" style="fill: #a63c23;"/>
      <path d="M280.6,37.1c-.6,8-3.4,5.6-10.6,5.6s-23.1,0-24.1-.6-.2-2.8-.3-3.7c11.7-.1,23.4.3,35-1.2Z" style="fill: #e9a143;"/>
      <g>
        <path d="M227.5,238.3c-1.5-.5-.7,3.1-.6,3.4,16.8,70.2,43.4,144.5,63.7,214.3,2.1,7.3,6.2,18.8,8.1,26.9s.4,6.4,0,7.2c-4.1-10.4-8-20.8-11.9-31.2-12.7-34.2-23.2-65.9-32.5-101.2-2.7-10.1-4.5-20.5-8.1-30.3l-1.9,2.5,8.1,30.3c-.7,4,10.9,42.9,13.1,49.7,5.6,17.1,13.1,33.5,19.4,50.3,6.4,17.1,12,34.6,18.1,51.9-5.8-.1-15.3-2-20.6-.6-2-4-3.6-8.2-5-12.5s-2-7.6-3.1-11.2c-20.6-65.5-40-131.6-59.4-197.5s-1.9-8.9-3.1-13.1c-4.2-14.2-8.5-28.6-13.4-42.5-.3,0-.8,2.6-.9,3.1-.7-1.7-1-3.9-1.2-5.6s-.5-1.3-.6-1.9c-.7-4.2-1.1-13.8-4.4-16.9s.3-1-.3-1.2c-27.2,1.2-55.8-1.7-82.8,0-1.2-2.6-1.2-.2-1.9-2.5,4.9-1.6,9.9,0,14.7,0s.8-1.2,1.6-1.2c22.2-.2,44.7,1.7,66.9.3-5-21.8-13.1-42.7-19.4-64-.2-.8-.5-5-1.2-7.5s-1.6-3.5-1.9-4.4-.4-7.8-1.2-9.1c-.9-.2-1.8-.8-2.5-.9-.9-9.4-4.8-18-7.5-26.9-5.3-17.3-10.8-34.6-16.2-51.9-1.1-3.5-2.1-8.4-4.4-11.2,1.1-9.7-5.7-14.8,1.9-25.6,7.9-1.2,16.3-3.3,21.9,4.1,21.7,67.1,40,135.6,60.6,203.1,1,3.2,2.5,1,3.1,3.1,2.1,6.8,2.9,14,5,20.9Z" style="fill: url(#c);"/>
        <path d="M168.1,27.7c51,153.2,88.1,311.6,138.1,465.2l1.9,7.5-1.9-1.2c-24.9-87.4-52.3-174-78.7-260.9-2.1-6.9-2.9-14.1-5-20.9s-2.1,0-3.1-3.1c-20.6-67.5-38.9-136-60.6-203.1-5.6-7.4-14-5.2-21.9-4.1.8-1.2,1.4-1.6,2.5-2.5,20.1-3.8,23.5,7.4,28.7,23.1Z" style="fill: #fefbda;"/>
        <path d="M166.9,7.7c2.5,5.9,4.1,12.1,6.2,18.1l-5,1.9c-5.2-15.7-8.7-26.9-28.7-23.1,8.8-7.1,20.9-6,27.5,3.1Z" style="fill: #e9a143;"/>
        <path d="M211.9,277l-66.2,223.7c-8.3,0-16.8.4-25-.6,1.2-3.5,2-8.6,3.1-12.5s2.9-9.5,3.7-14.4c3.2,0,17.1,1.1,18.4.6,4.4-1.4,5.8-13.1,4.1-16.9s-2.2-3.8-4.7-4.4-16.2-.9-9.7,2.5c-27.8-1.2-56.4-.1-84.4,0-.1-.8.2-1.9,0-2.5,10.7-1.1,21.7-.6,32.5-.6-.3,2.5.5,1.7,2.2,1.9,14.8,1.4,31.8-.3,46.9.6,1-.5-.7-1.7-.3-2.5,8.3-16.5,10.6-40.5,17.5-58.1,4.4,0,15.7.8,19.1-.6s6.3-12,4.7-16.2-11.2-3.2-16.2-3.7c2.7-12.7,15.9-42.1,16.2-52.2,0-2.1.3-3.7-2.5-3.4.2-1.3.7-3.1,0-4.4,5,0,16.7,1.9,20.9.6s8.8-22.7-1.6-20.9c-.2.3,1,2.2,1.2,2.8h-106.2c.2-5.9,6.2-3.3,10.9-3.7s.8-1.2,1.6-1.2c24.6-.9,54.3,2.7,80.6,1.2.5,0,1.2,1,2.2.6,6-18.1,10.8-36.8,16.6-55,.2-.5.7-3.1.9-3.1,4.9,13.9,9.2,28.3,13.4,42.5Z" style="fill: #d76827;"/>
        <path d="M215,290.2l-58.1,196.2c-1,3.1-2.4,10.8-3.7,13.1s-.9,1-1.2,1.2c-2-.2-4.2,0-6.2,0l66.2-223.7c1.3,4.3,2,9.2,3.1,13.1Z" style="fill: #a63c23;"/>
        <path d="M286.8,458.9l-1.9,1.2c-6.2-16.8-13.8-33.2-19.4-50.3s-13.9-45.6-13.1-49.7,1.5-2.2,1.9-2.5c9.3,35.4,19.8,67,32.5,101.2Z" style="fill: #e9a143;"/>
        <path d="M197.5,237.7c-5.8,18.2-10.6,36.9-16.6,55-1,.4-1.7-.7-2.2-.6l17.5-60c.3,1.7.6,4,1.2,5.6Z" style="fill: #e9a143;"/>
        <path d="M286.8,458.9c3.9,10.5,7.8,20.8,11.9,31.2,2.9,7.3,5.2,14.9,8.7,21.9-1.5,0-2.9,0-4.4,0-6.1-17.2-11.8-34.7-18.1-51.9l1.9-1.2Z" style="fill: #d76827;"/>
        <path d="M254.4,357.7c-.4.3-1.8,2.3-1.9,2.5l-8.1-30.3,1.9-2.5c3.7,9.8,5.5,20.2,8.1,30.3Z" style="fill: #f6bb58;"/>
        <g>
          <path d="M177.5,37.1c.9,1,.5,1.8,1.6,2.5,22.2-1.4,44.4-1.1,66.5-1.2.2.9-.4,3.3.3,3.7,1,.7,21.1.6,24.1.6l-89,.6c-1.5,1.9,1.5,5.3,1.6,5.6,4.8,24.4,14.4,48.5,20.6,72.8,9.2,1,18.4,0,27.5-.3s1.2,1.9,3.4,1.2c1-.6,1.6-5.9,2.2-7.2s1.2-.2,1.2-.3l-1.6,6.9c7.8.1,15.6-.2,23.4,0s5.4,0,8.1,0c5.2.1,10.5-.1,15.6,0s20.2-.4,22.2,0,2.4,2.7,2.8,3.1c-1,.3-1.4-.7-1.9-.6-1.9.3-.8,1-1.9,1.2l-99.7-.6c-.9,1.6.4,1.1,1.2,1.2,17.6,3.2,62.5.4,82.8,0l-82.8,1.2c-1.8.7.8,6.5,3.4,5-.9,3.7-3.2,7.7,1.2,10.6,0,.2,0,.4,0,.6.5,2,5.5,20.6,6.6,20.6l6.6-20c.6,0,2.2-.6,3.7-.6-.8,8.8-8.7,22.6-8.1,30.9s8.8,24.1,10,33.7c1.1,1.5,2.8.8,4.4.9,2.8.3,5.4-.6,7.5-.6,22.5,0,45.6-1.1,68.1-.6,5.1.1,22,.2,25.3,2.5s.9,2.4.9,2.5c-2.1-4.1-4.7-1.3-5-1.2-33.2.8-66.5-.6-99.7,0,1.4,2.3,8.6,1.2,11.6,1.2-2.5,3.7-11.8-1.9-11.2,4.1s10.3,3.3,13.4,3.4c28.2.9,56.8-1.8,85,0l1.6-.9-2.5-6.6c.7,0,1.8.3,1.9-.6,2.6,3.2,4,8.4.3,11.2h-96.2c-1.3.8,1.3,5.1,1.6,6.2,5.2,21,11.5,41.8,17.8,62.5,26.5.1,53.2-1.5,79.7-1.2,2.8,0,17.5-.2,18.4,0s1,1.3,1.6,1.9c2.5,2.7,5.4,13.4.3,14.4h-95c-1.2,2.8,2.1,5.3,2.2,5.6s-.4,2.7,0,4.1c5,19,11.7,37.5,16.6,56.5,26.6,1,53.7-2.2,80.3-1.2,1,0,.4,1.2.9,1.2,3.9.2,16.2-.8,18.7,0s1.1,1.9,1.6,2.5c2.4,3.2,3.1,9.2-.3,11.9h-96.2c-.4.2.3,5.4,2.2,5-1.3.9-.9,2.1-.6,3.4,4.6,19.2,12.7,38.1,17.5,57.2.3,1.4-1.1,2.6-.6,4.1l.9,1.6.9-.6,98.1-1.9h.6c.6,3.4,4.2,6.4-.3,10l-95.6,1.2c-1,.5,1.4,4.2,1.6,5,.9,5.1,2.4,9.4,3.7,14.4s2,7.5,3.1,11.2,2.9,8.7,3.1,13.1c-3.1-.9-6.6,0-10,0-3.5-7-5.9-14.6-8.7-21.9.4-.8,0-6.8,0-7.2-1.9-8.1-6-19.5-8.1-26.9-20.3-69.9-47-144.2-63.7-214.3,0-.3-.9-3.9.6-3.4,26.4,86.9,53.8,173.5,78.7,260.9l1.9,1.2-1.9-7.5c-50-153.6-87.1-312-138.1-465.2l5-1.9c1.7,4.8,1.9,8.6,4.4,11.2Z" style="fill: #f6bb58;"/>
          <g>
            <g>
              <path d="M353.7,296.4c.9,1.6.7,3.8.6,5.6l-96.9,1.9c-1.1-2-2.9-5.2-2.5-7.5h98.7Z" style="fill: #fbcd78;"/>
              <path d="M257.5,303.9l96.9-1.9c0,0,1.3-.2,1.2.3s-2.4,3.9-2.8,4.1l-94.4.6c-.4-.2-.6-2.6-.9-3.1Z" style="fill: #e9a143;"/>
            </g>
            <path d="M330.6,212.1v.6c0,1-1.2.6-1.9.6-28.3.7-57.9.5-86.2,0-3,0-10.1,1-11.6-1.2,33.2-.6,66.5.8,99.7,0Z" style="fill: #fefbda;"/>
            <g>
              <path d="M378.1,377.6c2.2,3.3.2,4.4-1.9,6.2-30.4-2.1-63.1,1.5-93.7.6-3.2.2-3.1-3.2-3.1-5.6l98.7-1.2Z" style="fill: #fbcd78;"/>
              <path d="M282.5,384.5c30.6.9,63.3-2.7,93.7-.6,1.1,0,2.2-.6,2.5-.3l.3,3.4h-95l-1.6-2.5Z" style="fill: #e9a143;"/>
              <path d="M304.3,125.8c0,0,.2,1.2-.3,1.2s-2.4-.7-4.1-.6c-3.7.3-7.5,0-11.2,0-20.3.4-65.2,3.2-82.8,0-.9-.2-2.2.3-1.2-1.2l99.7.6Z" style="fill: #fefbda;"/>
              <g>
                <path d="M400.9,458.3c.6,2,1.2,3.6-.6,5l-95.6,1.2-1.6-3.4,97.8-2.8Z" style="fill: #fbcd78;"/>
                <polygon points="401.2 457 303.1 458.9 302.8 457 401.2 457" style="fill: #fefbda;"/>
              </g>
              <path d="M378.1,377.6l-98.7,1.2c0-1.2-1-1.7-.3-2.5,11.1,3.1,96.3-2.9,99,1.2Z" style="fill: #fff9eb;"/>
            </g>
          </g>
        </g>
      </g>
      <g>
        <path d="M130,131.5c-.1,1.8,0,3.5-.6,5.3.8,1.8,34.6,1,39.4.3.7,2.5,1,6.7,1.2,7.5h-28.4l-.9,1.2c-9.2-3.7-15,2.8-14.4-10.6s2.4-6,3.1-8.7c3.4-.7.7,3.2.6,5Z" style="fill: #86261a;"/>
        <path d="M166.9,132.7c.3.9,1.4,2.9,1.9,4.4-4.8.7-38.6,1.5-39.4-.3.6-1.8.5-3.5.6-5.3l36.9,1.2Z" style="fill: #de8e41;"/>
        <path d="M308.1,125.2c1.9,2.1,4,6,4.4,8.7.7,5.8,0,10.2-6.2,10.6s-11-.6-15.6-.6-25.8-1.9-29.1-.6-1.7,5.1-2.8,6.2l-.3-5.6c-2,0-4,.1-5.9,0-8-.5-16.9,0-25,0s-3.2.6-3.7.6c-4.2,0-8.8-1.3-13.1-.6,0-.2,0-.4,0-.6-.2-.9-2.1-4.2-.9-5l95.6-.6c3.3-1.3.6-10.1.9-13.1.5,0,.9,1,1.9.6Z" style="fill: #86261a;"/>
        <path d="M300,126.5c3.6,2.4,5.9.8,4.1,6.9l-94.7-.6c-2.6,1.5-5.3-4.3-3.4-5l82.8-1.2c3.7,0,7.6.3,11.2,0Z" style="fill: #fbcd78;"/>
        <path d="M306.2,124.6c-.4,3,2.4,11.8-.9,13.1l-95.6.6c-1.2.8.8,4.1.9,5-4.4-3-2.2-6.9-1.2-10.6l94.7.6c1.9-6.1-.4-4.5-4.1-6.9,1.6-.1,3.9.7,4.1.6.5,0,.3-1.2.3-1.2,1-.3,0-1,1.9-1.2Z" style="fill: #e9a143;"/>
        <g>
          <path d="M163.1,122.7c.7.2,1.6.8,2.5.9.9,1.3.9,8,1.2,9.1l-36.9-1.2c.1-1.8,2.7-5.7-.6-5,.2-.8.4-1.7.6-2.5,5.9-1.1,11.9-.4,17.8-.6s.2-1.2.3-1.2c1.9,0,13.9.3,15,.6Z" style="fill: #f0b670;"/>
          <path d="M135.3,125.2c2.2-.5,24.9-.5,27.5,0s2.1-.1,2.2,1.6c-4.2,0-30.7,2.3-31.9,0-.3-.7,1.9-1.5,2.2-1.6Z" style="fill: #fefbda;"/>
        </g>
      </g>
      <g>
        <path d="M261.2,49l3.7,13.1c.5,5.9,4.4,17,6.2,23.1l-11.9,36.9c-7.8-.2-15.6.1-23.4,0l1.6-6.9c4-10.1,6.8-25.3,10-36.2s6-19.9,8.7-30c1.7,0,3.3,0,5,0Z" style="fill: #d76827;"/>
        <path d="M252.5,144l-18.7,65.6c-1.5-.2-3.3.6-4.4-.9-1.1-9.7-9.4-24.8-10-33.7s7.3-22.2,8.1-30.9c8.1,0,17-.5,25,0Z" style="fill: #d76827;"/>
        <path d="M258.7,149.6l-17.5,59.4c-2.1,0-4.7.9-7.5.6l18.7-65.6c2,.1,4,0,5.9,0l.3,5.6Z" style="fill: #a63c23;"/>
        <path d="M274.3,95.2l-6.9,26.9c-2.7,0-5.4,0-8.1,0l11.9-36.9c1,3.3,2.1,6.7,3.1,10Z" style="fill: #a63c23;"/>
        <path d="M247.5,79c-3.2,10.9-6,26.2-10,36.2s-1-.3-1.2.3c-.5,1.3-1.1,6.6-2.2,7.2-2.2.7-1.9-1.3-3.4-1.2,4.3-14.8,8.3-29.6,12.5-44.4l4.4,1.9Z" style="fill: #e9a143;"/>
        <path d="M256.2,49c-2.7,10-5.9,20-8.7,30l-4.4-1.9c2.6-9.3,5.9-18.5,7.5-28.1,1.9,0,3.8,0,5.6,0Z" style="fill: #d17a28;"/>
      </g>
      <g>
        <path d="M431.2,493.9c-.3,3.3,1.9,5.4.6,8.7-1.7.6-4.5-.6-5.6-.6L288.1,24.3c-3.1-8.5-5.5-19.5-16.6-20.3-1,0-12.3,1.5-7.2,3.1-.1,0,0,2.4-.6,2.8-.8.6-.7-1.8-1.6-.9-5.2,5.3-3.8,13.1-4.1,19.7,1,1.3,17.7-2,18.1,2.8-32.8-1.5-66.7,1.1-99.7,0l.6,1.9c25.7-.9,51.5-.7,77.2-.6.3,1.9-1.7,1.2-2.8,1.2-16.6.5-59.4-2.5-72.5.6s-1.6.1-1.6,2.5c-2.5-2.7-2.6-6.5-4.4-11.2s-3.8-12.3-6.2-18.1c4.6,6.4,5.8,13.9,8.4,21.2l81.2-1.2c0-11.2-.2-23.3,13.1-26.2,20.1-4.5,23.2,13.9,27.8,28.4,48.4,153.3,85.9,310.4,133.7,463.9Z" style="fill: #e9a143;"/>
        <path d="M314.3,122.1l-3.7-5.9c1.7,6.1,2.3,12.4,3.7,18.4l-1.9-.6c-.3-2.8-2.5-6.6-4.4-8.7s-2.4-3-2.8-3.1c-2-.4-18.1.1-22.2,0-2.6-9-6-17.9-8.7-26.9s-2.2-6.7-3.1-10c-1.8-6.2-5.8-17.3-6.2-23.1s-1.5-1.2.3-3.7,10.5-6.6,13.4-8.1,3.9-.6,4.7-1.2c5.7-4.8-2.2-25-3.4-16.2h-.6c-.5-1.7-1.9-1.2-3.1-1.2-.5-4.8-17.1-1.5-18.1-2.8.3-6.6-1.1-14.4,4.1-19.7s.8,1.6,1.6.9.5-2.7.6-2.8c3.4-2.2,14.1-.6,16.2,4.1,11.5,36.7,22.7,73.9,33.7,110.9Z" style="fill: #e9a143;"/>
        <path d="M426.2,502c-.4,0-.8,0-1.2,0-21.7-74.8-43.8-149.5-65.6-224.3-15.1-51.8-29.6-103.9-45-155.6-11-37-22.2-74.2-33.7-110.9-2.1-4.6-12.9-6.2-16.2-4.1-5.2-1.6,6.2-3.2,7.2-3.1,11,.8,13.5,11.8,16.6,20.3l138.1,477.7Z" style="fill: #fefbda;"/>
        <path d="M314.3,134.6c12.6,53,36.3,108.3,48.1,161.2.4,1.6,0,4.1-.6,5.6-1.9-4.1-2-8.5-8.1-8.1-.6-.6-1.4-1.8-1.6-1.9-.9-.2-15.7,0-18.4,0l-13.1-45.6c3.1-1.5-1.2-4.5,0-6.6s9.8-6.1,11.9-7.8,4.3-1.4,5-4.1-.4-10.8-1.9-14.1,1.5-.8-.9-2.5-20.2-2.4-25.3-2.5l-16.2-55.6,13.1-8.1c6.2-.4,7-4.8,6.2-10.6l1.9.6Z" style="fill: #e9a143;"/>
        <path d="M384.3,378.3c-.8-1.7-3.1-2.9-5-1.9-.5-.6-.8-2.2-1.6-2.5-2.5-.8-14.8.2-18.7,0s0-1.2-.9-1.2l-15.6-54.4c.4,1,2.2,5.1,3.4,5,3.2-4.1,8.5-6.1,12.2-9.4s3.3-4.4,4.4-10.6c8.3,19.2,18.4,54.4,21.9,75Z" style="fill: #de8e41;"/>
        <path d="M406.8,457.6c1.5,1.9,1.2,3.5,1.2,5.6s.1,6.2-1.2,8.4-4.2,2.2-5,2.8c-3.7-1.3-8-.5-11.9-.6s-1.7-.6-3.1-.6c-26.4-.7-52.9.5-79.4,0-.1-.8-2.5-4.5-1.6-5l95.6-1.2c4.6-3.6.9-6.6.3-10s0-.8,0-1.2c1.5.6,2.9-.9,5,1.9Z" style="fill: #86261a;"/>
        <path d="M401.8,455.8c0,.4,0,.9,0,1.2h-99l.3,1.9-.9.6-.9-1.6c-.4-1.5,1-2.7.6-4.1,26.1.3,52.7-2,78.7-1.2,3.1,0,16,.2,18.4.6s2.6,2.4,2.8,2.5Z" style="fill: #f6bb58;"/>
        <path d="M389.9,473.9c-1.2,2.7,2.2,6.5,2.5,7.5,1.8,6.3,2.3,14.3,5,20.6h-1.2c-.2-.2-1.2-1.2-1.2-1.2-.7-1.4-1.2-5.6-1.9-7.5-2.3-6.6-4-13.4-6.2-20,1.5,0,2.6.6,3.1.6Z" style="fill: #be5c27;"/>
        <path d="M424.9,502c-.9,0-2.4,0-3.7,0l-13.1-38.7c0-2.2.2-3.7-1.2-5.6-.2-7.7-2.8-16.6-5-24.1-4.1-14.2-8.7-32.8-13.7-46.2s-1.4-3.1-2.5-2.8c0-2.4-.9-4-1.2-6.2-3.4-20.6-13.6-55.8-21.9-75s-.3-1.2-.6-1.9c.6-1.5,1-4,.6-5.6,1.8.5.7-3,.6-3.4-1.2-4.6-4.2-9.7-3.7-14.7,21.8,74.8,43.9,149.5,65.6,224.3Z" style="fill: #e9a143;"/>
        <path d="M421.2,502c-7.8-.2-15.9,0-23.7,0-2.7-6.4-3.2-14.3-5-20.6,2.8-2.7,6.2-4.6,9.4-6.9s3.4-.2,5-2.8,1.3-5.9,1.2-8.4l13.1,38.7Z" style="fill: #d17a28;"/>
        <path d="M314.3,122.1c15.4,51.7,29.9,103.8,45,155.6-.5,4.9,2.6,10.1,3.7,14.7s1.2,3.9-.6,3.4c-11.8-52.9-35.5-108.2-48.1-161.2-1.4-6.1-2.1-12.4-3.7-18.4l3.7,5.9Z" style="fill: #f6bb58;"/>
        <path d="M278.7,50.2c-3,1.5-11.7,5.7-13.4,8.1s-.4,2.2-.3,3.7l-3.7-13.1c5.8.1,11.8.5,17.5,1.2Z" style="fill: #be5c27;"/>
        <path d="M332.5,231.4c-2.1,1.7-11.5,7.2-11.9,7.8-1.2,2,3.1,5.1,0,6.6-1.4-5-3.3-9.9-4.4-15,5.4.2,10.9-.4,16.2.6Z" style="fill: #d76827;"/>
        <path d="M358.1,313.9c-3.7,3.2-9,5.3-12.2,9.4-1.2,0-3-4-3.4-5-.7-1.7-1.1-3.4-1.9-5,5.8.1,11.7,1.2,17.5.6Z" style="fill: #be5c27;"/>
        <path d="M406.8,457.6c-2.1-2.8-3.5-1.2-5-1.9s0-2-2.8-2.5-15.4-.5-18.4-.6c-4.5-16.3-9.1-32.5-13.7-48.7,4.2-2.9,12.1-6.2,15.6-9.4,4.5-3.9,3.3-4.8,3.1-10,1.1-.3,2.2,2.1,2.5,2.8,5,13.5,9.7,32,13.7,46.2,2.1,7.5,4.8,16.4,5,24.1Z" style="fill: #d17a28;"/>
        <path d="M382.4,394.5c-3.5,3.1-11.4,6.5-15.6,9.4-.9-3.1-1.9-6.3-3.1-9.4,6.2.2,12.5-.1,18.7,0Z" style="fill: #be5c27;"/>
        <path d="M306.2,144.6l-13.1,8.1c-.8-2.9-2.3-5.6-2.5-8.7,4.6,0,11.7.9,15.6.6Z" style="fill: #be5c27;"/>
        <path d="M401.8,474.5c-3.1,2.3-6.5,4.2-9.4,6.9-.3-1-3.7-4.8-2.5-7.5,3.8.2,8.2-.6,11.9.6Z" style="fill: #d76827;"/>
      </g>
    </g>
    <g>
      <path d="M361.8,301.4c.3.7.4,1.5.6,1.9-1.1,6.2.4,6.4-4.4,10.6-5.8.6-11.7-.5-17.5-.6-26.4-.7-52.9.5-79.4,0,0-.3-3.4-2.8-2.2-5.6h95c5.1-1,2.2-11.7-.3-14.4,6.2-.4,6.2,4.1,8.1,8.1Z" style="fill: #86261a;"/>
      <g>
        <path d="M85,295.8c0,.3-2.2,3.5-2.5,5s0,1.7,0,2.5-1.5,2-.3,3.1l108.7.6c3.1-2.5,2.2-4.2,2.2-6.9s0-1.1-.6-3.1-.6-1.2-.6-1.2c-.2-.6-1.5-2.5-1.2-2.8,10.3-1.8,7.1,19.3,1.6,20.9s-16-.6-20.9-.6c-25.9,0-53.9,1.5-79.4.6-11.1-.4-15-.4-14.4-13.1.6-1.9,1.9-3.6,2.5-5.6,2.4-2.3,5.7-4.8,5,.6Z" style="fill: #86261a;"/>
        <path d="M191.9,295.8c0,0,.3.2.6,1.2l-106.8-1.2h106.2Z" style="fill: #fff9eb;"/>
        <path d="M85.6,295.8l106.8,1.2c.6,2,.6.5.6,3.1-.8.5-1.8,1.2-2.5,1.9l-108.1-1.2c.3-1.5,2.5-4.7,2.5-5h.6Z" style="fill: #f0b670;"/>
        <path d="M82.5,303.3l107.2.6c1-.4.9-1.8.9-1.9.7-.6,1.7-1.3,2.5-1.9,0,2.7,1,4.4-2.2,6.9l-108.7-.6c-1.2-1.1.3-3,.3-3.1Z" style="fill: #d76827;"/>
        <path d="M190.6,302c0,0,0,1.5-.9,1.9l-107.2-.6c0-.8-.1-1.8,0-2.5l108.1,1.2Z" style="fill: #de8e41;"/>
      </g>
    </g>
    <g>
      <path d="M129.4,85.8c-2.1,7-4.3,14.3-6.2,21.2-21.2,73.9-42.9,147.9-64.4,221.8-7.1,23.1-14.6,46.1-21.2,69.4.6-3.4,1-7.8,2.5-11.6l-7.5-1.6c32-111,66.5-221.6,96.9-333,3.5-.4,3.7,4.1,4.4,6.6l1.6-.3c.5-4.5,4-8.5-.3-11.6l2.2,1.6c.3,0,1.5-2.2,1.6-2.5-2.3,13.4-5.7,26.9-9.4,40Z" style="fill: #f5e681;"/>
      <path d="M37.5,398.3c-.5,3-1.2,6.4-1.9,9.4-4.5,15-8.9,29.8-13.1,45-1.7,5.5-3.3,11.6-5,16.9-.7,1.7-2.8,3.3-1.9,6.2-.6,2.1-2.3,5.5-3.1,8.1s-.8,4.6-1.2,6.2c-1,2.6-1.6,1.7-1.9,5.6-.6,1.2-2.7,2.8-2.5,5-1.7,0-4.5,1.5-6.9,0-.3-3.8,1.1-7,1.9-10.6,7.4-33.6,20.9-71.3,30.6-105l7.5,1.6c-1.5,3.8-1.9,8.2-2.5,11.6Z" style="fill: #e9cd5d;"/>
      <path d="M139.4,44c-1.1,0-.4,1.3-.6,1.9s-1.3,2.5-1.6,2.5l-2.2-1.6c4.3,3,.8,7.1.3,11.6l-1.6.3c-.7-2.5-.9-6.9-4.4-6.6,1.5-5.5,5.1-14.2,5.6-19.4,2.3,2.9,3.3,7.7,4.4,11.2Z" style="fill: #e9cd5d;"/>
      <path d="M130,124c-.2.8-.4,1.7-.6,2.5-.7,2.8-2.9,2.8-3.1,8.7-1-.5-1.8,1.7-1.9,2.2-2.1,10.8-19.2,68.6-18.1,72.2s.6-.1,1.9,2.5c-.2,0-.4,0-.6,0s-.7-1.1-2.2-.6c-3.4,1.1-5.1,9.8-4.7,13.1-6.2,23.7-13.7,47.1-20.6,70.6-.6,2-1.9,3.7-2.5,5.6-7.3,24.7-13.9,49.6-21.2,74.4s-1.7,5.4-2.5,8.1c-6.3,21.3-11.2,46.7-19.4,67.2-.7,1.7-5.1,5.1-5.6,7.5-1.2,5.2-.8,15.4-1.9,20.6s-4.9,20.4-5.6,21.2-10.2,0-12.2.3c-.5-.3.2-3.5.3-4.4,1.5-2.8,1.1-3.1,1.9-5.6.6-1.6,3.2-4.4,1.2-6.2.8-2.7,2.5-6,3.1-8.1s1.2-4.2,1.9-6.2c2.3-5.6,3.4-11.1,5-16.9,4.6-15,9.8-29.6,13.1-45,7.9-26.2,15.5-52.4,23.1-78.7,22.6-73.6,43.1-147.8,64.4-221.8,2-7.1,4.3-14.1,6.2-21.2,3.5-11.6,8-23.2,10-35.3,1.5.5,4.3,7.9,4.4,8.7,1.3,11.1-10.4,51.5-13.7,64.7Z" style="fill: #d17a28;"/>
      <path d="M126.3,135.2c-.6,13.5,5.1,6.9,14.4,10.6l-18.1,62.5c-.7,0-1.3,1.2-1.6,1.2-4.8,0-9.8-1.6-14.7,0-1.1-3.6,16.1-61.4,18.1-72.2s.8-2.7,1.9-2.2Z" style="fill: #be5c27;"/>
      <path d="M155.6,95.8l-7.5,26.2c0,0,.2,1.2-.3,1.2-5.9.2-11.9-.5-17.8.6,3.3-13.2,15.1-53.6,13.7-64.7s-2.9-8.3-4.4-8.7c-2,12.1-6.5,23.7-10,35.3,3.6-13.1,7-26.6,9.4-40,.2-.6-.5-1.8.6-1.9,5.5,17.3,10.9,34.5,16.2,51.9Z" style="fill: #be5c27;"/>
      <path d="M58.8,328.9c21.5-73.9,43.2-147.9,64.4-221.8-21.2,74.1-41.8,148.2-64.4,221.8Z" style="fill: #aa5225;"/>
      <path d="M35.7,407.6c.7-3,1.4-6.4,1.9-9.4,6.7-23.2,14.2-46.3,21.2-69.4-7.6,26.3-15.2,52.5-23.1,78.7Z" style="fill: #aa5225;"/>
      <path d="M123.1,107.1c2-6.9,4.1-14.2,6.2-21.2-2,7.1-4.2,14.2-6.2,21.2Z" style="fill: #aa5225;"/>
      <path d="M68.1,393.9l-18.1,57.8c.2.5,1.2.9,1.2.9.2.6-.1,1.7,0,2.5-4.3,0-11-1-14.4,1.2h-.6c.8-1.7,1.5-2.2,2.2-3.7-8.6-2.7-11.6,18.9-5,20.6.8.2,8.1.6,9.7.6-1.8,5.4-3.2,10.9-5,16.2s-2,9.5-3.1,11.2c-9.4,0-18.8-.4-28.1-.6-.2-2.2,1.9-3.8,2.5-5,0,.8-.8,4.1-.3,4.4,2-.3,11.4.6,12.2-.3s5.1-18.8,5.6-21.2c1-5.2.6-15.4,1.9-20.6s5-5.8,5.6-7.5c8.2-20.4,13.1-45.8,19.4-67.2,1.1,11.8,4.4,10.5,14.4,10.6Z" style="fill: #be5c27;"/>
      <path d="M22.5,452.6c4.2-15.2,8.6-30,13.1-45-3.4,15.4-8.6,30-13.1,45Z" style="fill: #aa5225;"/>
      <path d="M17.5,469.5c1.7-5.3,3.3-11.4,5-16.9-1.6,5.8-2.7,11.3-5,16.9Z" style="fill: #aa5225;"/>
      <path d="M11.3,490.1c.5-1.6.5-4,1.2-6.2,2,1.9-.6,4.7-1.2,6.2Z" style="fill: #be5c27;"/>
      <path d="M15.7,475.7c-1-3,1.2-4.5,1.9-6.2-.6,2-1.3,4.2-1.9,6.2Z" style="fill: #aa5225;"/>
      <path d="M9.4,495.7c.3-3.9.9-3.1,1.9-5.6-.8,2.5-.4,2.8-1.9,5.6Z" style="fill: #be5c27;"/>
      <path d="M116.9,230.2l-18.7,60.6c-.7,0-1.3,1.2-1.6,1.2-4.8.4-10.8-2.1-10.9,3.7h-.6c.7-5.4-2.6-2.9-5-.6,7-23.5,14.5-46.9,20.6-70.6,1.1,8.1,10.2,5.4,16.2,5.6Z" style="fill: #be5c27;"/>
      <path d="M36.3,456.4c-.7,1.7-1.6,3.1-1.9,5s-1.3,3.3-.3,5h111.2c1.9-.7,3.4-6.9,2.2-8.7,1.1-1.2.8-1.7,2.5-.6,1.7,3.8.4,15.5-4.1,16.9s-15.3-.7-18.4-.6c-27.3.2-57.5,1.6-84.4.6-1.6,0-8.9-.4-9.7-.6-6.6-1.8-3.6-23.3,5-20.6-.6,1.5-1.4,2-2.2,3.7Z" style="fill: #86261a;"/>
      <path d="M51.3,455.1c27.9-.1,56.5-1.2,84.4,0s8.5-.8,10,1.2H36.9c3.4-2.2,10.1-1.2,14.4-1.2Z" style="fill: #fefbda;"/>
      <path d="M132.5,452c-.4.8,1.3,2,.3,2.5-15-.9-32,.7-46.9-.6-1.7-.2-2.5.6-2.2-1.9h48.7Z" style="fill: #f0b670;"/>
      <path d="M150,457c-1.7-1.1-1.4-.6-2.5.6s-.2,1.6-1.2,2.5c0-1.5.4-2.4-.6-3.7-1.5-2.1-7.3-1.1-10-1.2-6.5-3.4,8.2-2.8,9.7-2.5,2.5.5,3.7,2.2,4.7,4.4Z" style="fill: #be5c27;"/>
      <path d="M91.9,313.9l-18.1,58.7c-2.9.2-8.9.2-11.2,1.6s.2,1.3,0,1.6-1.4.5-1.2,1.2h-.6c.4-5.5-.9-4.8-4.4-1.9,7.3-24.7,13.9-49.7,21.2-74.4-.6,12.7,3.3,12.7,14.4,13.1Z" style="fill: #be5c27;"/>
      <path d="M145.6,456.4c1,1.4.6,2.3.6,3.7-2.3,2-4,2.1-7.2,2.5-19.3,2.2-79.5,2.1-98.7,0s-3.8-2.3-5.9-1.2c.3-1.9,1.1-3.3,1.9-5h109.3Z" style="fill: #f0b670;"/>
      <path d="M147.5,457.6c1.2,1.8-.2,8.1-2.2,8.7H34.1c-.9-1.7,0-3.4.3-5,2.2-1.1,5,1.1,5.9,1.2,19.2,2.1,79.4,2.2,98.7,0s4.9-.5,7.2-2.5.3-1.4,1.2-2.5Z" style="fill: #be5c27;"/>
      <g>
        <path d="M60.6,377c0,.3-1,3.1-1.2,4.4s-2.2,4.2-.9,5l108.7,1.2c3.6-1.6,4.1-5.2,3.4-8.7s.1-1,0-1.2c.4-3.2,1.2-.8,3.1-.6,1.6,4.3-.2,14.4-4.7,16.2s-14.7.6-19.1.6c-27.2,0-54.7.2-81.9,0-10,0-13.3,1.2-14.4-10.6.8-2.7,1.7-5.4,2.5-8.1,3.5-2.9,4.8-3.6,4.4,1.9Z" style="fill: #86261a;"/>
        <path d="M157.5,373.3c-.1.6,0,1.3,0,1.9-31.5-1.2-63.5.4-95,.6.2-.2-.2-1.5,0-1.6,2.3-1.4,8.3-1.4,11.2-1.6,26.7-1.9,54.7.2,81.5-.6,4.3-17.6,12.9-36.7,15.9-54.4,2.8-.3,2.6,1.3,2.5,3.4-.3,10.1-13.5,39.5-16.2,52.2Z" style="fill: #f0b670;"/>
        <path d="M173.7,377c-1.9-.2-2.7-2.6-3.1.6,0,0-1-1-1.2-1.2-1.7-1.3-9.1-1.1-11.9-1.2,0-.6-.1-1.3,0-1.9,5.1.6,14-2.2,16.2,3.7Z" style="fill: #be5c27;"/>
        <path d="M170.6,377.6c.1.2,0,.9,0,1.2-.4,6.2-7.2,2.4-10.9,4.4l-100.3-1.9c.3-1.3,1.2-4.1,1.2-4.4h.6l108.1-.6c.3.2,1.2,1.2,1.2,1.2Z" style="fill: #f0b670;"/>
        <path d="M59.4,381.4l100.3,1.9c3.7-2,10.5,1.8,10.9-4.4.7,3.5.2,7.1-3.4,8.7l-108.7-1.2c-1.2-.8.8-4.2.9-5Z" style="fill: #d17a28;"/>
        <path d="M157.5,375.1c2.7.1,10.2,0,11.9,1.2l-108.1.6c-.1-.7,1.2-1.2,1.2-1.2,31.5-.2,63.5-1.8,95-.6Z" style="fill: #fefbda;"/>
      </g>
    </g>
  </g>
</svg>